<svg width="116" height="38" viewBox="0 0 116 38" fill="none" xmlns="http://www.w3.org/2000/svg">
<g id="Layer 1">
<g id="Group">
<g id="Group_2">
<path id="Vector" d="M86.9636 23.3476H75.1694C75.4893 25.6087 76.9272 27.3289 79.74 27.3289C81.2103 27.3289 82.3291 26.883 82.9366 25.9275H86.5798C85.621 28.6345 82.9681 30.2267 79.7077 30.2267C74.9771 30.2267 71.7814 26.8185 71.7814 22.3599C71.7814 17.9014 74.9456 14.4932 79.5163 14.4932C84.5021 14.4932 87.6025 18.2828 86.9636 23.3467V23.3476ZM75.2332 21.0543H83.6708C83.4794 18.6016 81.8806 17.296 79.5477 17.296C77.0548 17.296 75.616 18.9517 75.2332 21.0543Z" fill="black"/>
<path id="Vector_2" d="M98.5416 14.9404V18.0611C96.1449 18.157 94.3223 19.0489 92.9806 20.8004V30.228H89.6564V15.2592H92.9806V17.2973C94.3547 15.8001 96.241 14.9404 98.5416 14.9404Z" fill="black"/>
<path id="Vector_3" d="M111.543 11.3311C111.543 10.1526 112.47 9.29297 113.652 9.29297C114.835 9.29297 115.762 10.1526 115.762 11.3311C115.762 12.5095 114.803 13.3691 113.652 13.3691C112.502 13.3691 111.543 12.5095 111.543 11.3311ZM115.315 14.9395V30.227H112.023V14.9395H115.315Z" fill="black"/>
<path id="Vector_4" d="M109.854 14.9404H106.923V11.6318L103.602 12.351V14.9404H100.671V18.1076H103.602V30.227H106.923V18.1076H109.854V14.9404Z" fill="black"/>
<path id="Vector_5" d="M66.3452 20.6538C65.5844 24.1521 62.4601 26.7738 58.7217 26.7738C54.4129 26.7738 50.9202 23.2934 50.9202 19C50.9202 14.7065 54.4129 11.2262 58.7217 11.2262C62.4601 11.2262 65.5844 13.8469 66.3452 17.3462H70.0122C69.2095 11.9303 64.5255 7.77344 58.8674 7.77344C52.6447 7.77344 47.6008 12.7994 47.6008 19C47.6008 25.2006 52.6447 30.2265 58.8674 30.2265C64.5255 30.2265 69.2095 26.0697 70.0122 20.6538H66.3452Z" fill="black"/>
</g>
<g id="Group_3">
<path id="Vector_6" d="M17.938 25.867C17.7466 24.2682 17.7151 22.8877 17.7256 21.5185C15.5117 21.5403 13.3797 20.3097 12.3627 18.1872C10.9649 15.2695 12.2056 11.7759 15.1327 10.383L10.1574 0C1.47505 4.1312 -2.20337 14.4934 1.94259 23.1448C5.42295 30.4081 13.3102 34.156 20.8889 32.728C19.4177 30.5732 18.275 28.2315 17.938 25.867Z" fill="#2756FF"/>
<path id="Vector_7" d="M30.0468 18.2232C30.0668 16.6804 30.0783 15.1376 30.0849 13.5939H34.2547V6.601H30.0935C30.0935 5.20242 30.0916 3.80385 30.0935 2.40527L20.2009 3.80385C20.2009 4.73655 20.2009 5.6683 20.2009 6.601H16.0549V13.5939H20.2009C20.2009 14.6034 20.2009 15.6139 20.2009 16.6235C20.2933 20.044 19.9781 22.4616 20.3847 25.866C21.0274 30.3739 24.5935 34.7964 27.7929 38.0006L35.4202 32.2118C29.4222 26.8708 30.0468 23.3137 30.0468 18.2223V18.2232Z" fill="#FF3EB6"/>
</g>
</g>
</g>
</svg>
