<svg width="116" height="38" viewBox="0 0 116 38" fill="none" xmlns="http://www.w3.org/2000/svg">
<path d="M86.9637 23.3463H75.1701C75.49 25.6072 76.9278 27.3274 79.7405 27.3274C81.2107 27.3274 82.3295 26.8815 82.937 25.926H86.58C85.6212 28.6329 82.9684 30.225 79.7081 30.225C74.9777 30.225 71.7822 26.8169 71.7822 22.3586C71.7822 17.9002 74.9463 14.4922 79.5168 14.4922C84.5024 14.4922 87.6026 18.2816 86.9637 23.3453V23.3463ZM75.2339 21.0531H83.6711C83.4797 18.6004 81.881 17.2949 79.5482 17.2949C77.0554 17.2949 75.6166 18.9505 75.2339 21.0531Z" fill="black"/>
<path d="M98.541 14.9395V18.06C96.1444 18.1558 94.3219 19.0477 92.9803 20.7992V30.2263H89.6562V15.2582H92.9803V17.2962C94.3543 15.7991 96.2406 14.9395 98.541 14.9395Z" fill="black"/>
<path d="M111.542 11.329C111.542 10.1506 112.468 9.29102 113.651 9.29102C114.834 9.29102 115.76 10.1506 115.76 11.329C115.76 12.5074 114.801 13.367 113.651 13.367C112.501 13.367 111.542 12.5074 111.542 11.329ZM115.314 14.9373V30.2241H112.022V14.9373H115.314Z" fill="black"/>
<path d="M109.853 14.9373H106.922V11.6289L103.601 12.3481V14.9373H100.67V18.1044H103.601V30.2232H106.922V18.1044H109.853V14.9373Z" fill="black"/>
<path d="M66.3461 20.6513C65.5853 24.1495 62.4613 26.771 58.723 26.771C54.4144 26.771 50.9218 23.2908 50.9218 18.9975C50.9218 14.7043 54.4144 11.2241 58.723 11.2241C62.4613 11.2241 65.5853 13.8447 66.3461 17.3438H70.013C69.2103 11.9281 64.5265 7.77148 58.8687 7.77148C52.6462 7.77148 47.6025 12.7972 47.6025 18.9975C47.6025 25.1979 52.6462 30.2236 58.8687 30.2236C64.5265 30.2236 69.2103 26.067 70.013 20.6513H66.3461Z" fill="black"/>
<path d="M17.94 25.8658C17.7487 24.2671 17.7172 22.8867 17.7277 21.5175C15.5139 21.5394 13.382 20.3088 12.3651 18.1864C10.9673 15.2688 12.2079 11.7754 15.1349 10.3826L10.1598 0C1.47787 4.13102 -2.20039 14.4927 1.94539 23.1438C5.42559 30.4067 13.3125 34.1544 20.8908 32.7265C19.4197 30.5718 18.2771 28.2302 17.94 25.8658Z" fill="#2756FF"/>
<path d="M30.0479 18.2235C30.0679 16.6808 30.0793 15.138 30.086 13.5944H34.2556V6.60179H30.0946C30.0946 5.20328 30.0927 3.80476 30.0946 2.40625L20.2024 3.80476C20.2024 4.73742 20.2024 5.66913 20.2024 6.60179H16.0566V13.5944H20.2024C20.2024 14.6039 20.2024 15.6143 20.2024 16.6238C20.2948 20.0442 19.9796 22.4617 20.3862 25.866C21.0289 30.3737 24.5948 34.796 27.7941 38L35.4211 32.2115C29.4233 26.8707 30.0479 23.3137 30.0479 18.2225V18.2235Z" fill="#FF3EB6"/>
</svg>
