<svg width="101" height="33" viewBox="0 0 101 33" fill="none" xmlns="http://www.w3.org/2000/svg">
<g id="Layer 1">
<g id="Group">
<g id="Group_2">
<path id="Vector" d="M75.6373 20.2638H65.4012C65.6789 22.2262 66.9268 23.7192 69.3681 23.7192C70.644 23.7192 71.6151 23.3321 72.1424 22.5029H75.3042C74.472 24.8523 72.1696 26.2341 69.34 26.2341C65.2343 26.2341 62.4608 23.2761 62.4608 19.4066C62.4608 15.537 65.207 12.5791 69.1738 12.5791C73.501 12.5791 76.1918 15.8681 75.6373 20.263V20.2638ZM65.4566 18.2735H72.7795C72.6134 16.1448 71.2258 15.0117 69.2011 15.0117C67.0375 15.0117 65.7888 16.4486 65.4566 18.2735Z" fill="black"/>
<path id="Vector_2" d="M85.6857 12.9668V15.6752C83.6056 15.7584 82.0238 16.5325 80.8594 18.0526V26.2347H77.9744V13.2435H80.8594V15.0123C82.0519 13.7129 83.6891 12.9668 85.6857 12.9668Z" fill="black"/>
<path id="Vector_3" d="M96.9698 9.83427C96.9698 8.8115 97.7739 8.06543 98.8003 8.06543C99.8267 8.06543 100.631 8.8115 100.631 9.83427C100.631 10.857 99.7986 11.6031 98.8003 11.6031C97.802 11.6031 96.9698 10.857 96.9698 9.83427ZM100.243 12.966V26.2339H97.3863V12.966H100.243Z" fill="black"/>
<path id="Vector_4" d="M95.5036 12.9672H92.9599V10.0957L90.0773 10.7199V12.9672H87.5336V15.716H90.0773V26.2343H92.9599V15.716H95.5036V12.9672Z" fill="black"/>
<path id="Vector_5" d="M57.7428 17.9258C57.0825 20.962 54.371 23.2373 51.1264 23.2373C47.3869 23.2373 44.3555 20.2167 44.3555 16.4905C44.3555 12.7642 47.3869 9.74372 51.1264 9.74372C54.371 9.74372 57.0825 12.0182 57.7428 15.0552H60.9253C60.2286 10.3547 56.1635 6.74707 51.2529 6.74707C45.8522 6.74707 41.4746 11.109 41.4746 16.4905C41.4746 21.8719 45.8522 26.2339 51.2529 26.2339C56.1635 26.2339 60.2286 22.6263 60.9253 17.9258H57.7428Z" fill="black"/>
</g>
<g id="Group_3">
<path id="Vector_6" d="M15.7305 22.4497C15.5644 21.0622 15.5372 19.864 15.5463 18.6757C13.6248 18.6947 11.7745 17.6266 10.8918 15.7845C9.67866 13.2523 10.7555 10.2202 13.2959 9.01135L8.97785 0C1.44253 3.58544 -1.74994 12.5787 1.84831 20.0872C4.86888 26.3909 11.7141 29.6437 18.2916 28.4043C17.0148 26.5342 16.0231 24.5018 15.7305 22.4497Z" fill="#2756FF"/>
<path id="Vector_7" d="M26.2397 15.8161C26.2571 14.4772 26.267 13.1382 26.2728 11.7984H29.8917V5.72932H26.2802C26.2802 4.51551 26.2786 3.3017 26.2802 2.08789L17.6945 3.3017C17.6945 4.11118 17.6945 4.91984 17.6945 5.72932H14.0963V11.7984H17.6945C17.6945 12.6746 17.6945 13.5516 17.6945 14.4278C17.7747 17.3964 17.5011 19.4946 17.854 22.4493C18.4119 26.3616 21.5068 30.1999 24.2836 32.9808L30.9032 27.9567C25.6976 23.3213 26.2397 20.2341 26.2397 15.8153V15.8161Z" fill="#FF3EB6"/>
</g>
</g>
</g>
</svg>
