<svg width="104" height="30" viewBox="0 0 104 30" fill="none" xmlns="http://www.w3.org/2000/svg">
<path d="M20.2611 29.4948H14.8925V19.7348C14.8925 17.1014 12.7558 14.9623 10.1252 14.9623C7.49458 14.9623 5.35787 17.1014 5.35787 19.7348V29.4948H0V19.7348C0 14.1454 4.54184 9.58789 10.1359 9.58789C15.73 9.58789 20.2719 14.1347 20.2719 19.7348V29.4948H20.2611Z" fill="black"/>
<path d="M28.3999 29.4949H23.0312V10.1469C23.0312 4.54677 27.5731 0 33.1672 0V5.37444C30.5366 5.37444 28.3999 7.51346 28.3999 10.1469V10.7811C29.8172 10.018 31.4385 9.588 33.1672 9.588V14.9624C30.5366 14.9624 28.3999 17.1015 28.3999 19.7349V29.4949Z" fill="black"/>
<path d="M53.8476 2.95605H48.479V29.2263H53.8476V2.95605Z" fill="black"/>
<path d="M45.8908 29.355C40.3075 29.355 35.7549 24.8083 35.7549 19.2081V3.35352H41.1235V19.2081C41.1235 21.8416 43.2602 23.9806 45.8908 23.9806V29.355Z" fill="black"/>
<path d="M45.891 9.07227H39.3843V14.4467H45.891V9.07227Z" fill="black"/>
<path d="M71.4672 29.4958H66.0986V19.7358C66.0986 16.7799 64.7135 14.9633 63.9619 14.9633C63.2103 14.9633 61.8252 16.7691 61.8252 19.7358V29.4958H56.4565V19.7358C56.4565 14.0497 59.7529 9.58887 63.9619 9.58887C68.1709 9.58887 71.4672 14.0497 71.4672 19.7358V29.4958Z" fill="black"/>
<path d="M81.1093 29.3552H75.7407V19.5952C75.7407 16.6392 74.3556 14.8227 73.604 14.8227C72.8523 14.8227 71.4672 16.6285 71.4672 19.5952V29.3552H66.0986V19.5952C66.0986 13.909 69.395 9.44824 73.604 9.44824C77.8129 9.44824 81.1093 13.8983 81.1093 19.5952V29.3552Z" fill="black"/>
<path d="M92.9414 29.9997C90.3752 29.9997 87.9271 29.043 86.0373 27.2802C84.0617 25.4314 82.9128 22.9269 82.8162 20.2182C82.7195 17.5095 83.6859 14.9298 85.5327 12.952C87.3795 10.9742 89.8813 9.82406 92.5871 9.72732C95.2606 9.63058 97.8698 10.598 99.8454 12.4468C101.821 14.2956 102.97 16.8001 103.056 19.5088V22.5507H88.9901C89.1833 22.8409 89.4196 23.1097 89.6773 23.3461C90.6114 24.2168 91.8032 24.6468 93.0917 24.6253C94.5197 24.5715 95.8297 23.8943 96.6994 22.7657L100.951 26.0441C99.1045 28.4519 96.3021 29.8922 93.2635 29.9997C93.1454 29.9997 93.0165 29.9997 92.8984 29.9997H92.9414ZM89.0116 17.1763H96.8819C96.6887 16.8861 96.4524 16.6173 96.1948 16.3701C95.2606 15.4995 94.0581 15.0373 92.7803 15.091C91.5133 15.134 90.3322 15.6714 89.4625 16.6066C89.3015 16.7893 89.1404 16.9721 89.0116 17.1763Z" fill="black"/>
</svg>
