<svg width="110" height="36" viewBox="0 0 110 36" fill="none" xmlns="http://www.w3.org/2000/svg">
<g id="Layer 1">
<g id="Group">
<g id="Group_2">
<path id="Vector" d="M82.1592 22.1178H70.986C71.2891 24.2598 72.6512 25.8895 75.316 25.8895C76.7088 25.8895 77.7688 25.467 78.3443 24.5619H81.7957C80.8873 27.1264 78.3741 28.6347 75.2853 28.6347C70.8038 28.6347 67.7764 25.4059 67.7764 21.1821C67.7764 16.9583 70.774 13.7295 75.104 13.7295C79.8274 13.7295 82.7645 17.3196 82.1592 22.1169V22.1178ZM71.0464 19.9452H79.0398C78.8585 17.6216 77.3439 16.3848 75.1338 16.3848C72.7721 16.3848 71.4091 17.9533 71.0464 19.9452Z" fill="black"/>
<path id="Vector_2" d="M93.1278 14.1543V17.1107C90.8573 17.2015 89.1307 18.0464 87.8596 19.7058V28.637H84.7104V14.4563H87.8596V16.3871C89.1613 14.9687 90.9484 14.1543 93.1278 14.1543Z" fill="black"/>
<path id="Vector_3" d="M105.445 10.7345C105.445 9.61809 106.323 8.80371 107.443 8.80371C108.563 8.80371 109.441 9.61809 109.441 10.7345C109.441 11.8509 108.533 12.6653 107.443 12.6653C106.353 12.6653 105.445 11.8509 105.445 10.7345ZM109.018 14.1529V28.6356H105.899V14.1529H109.018Z" fill="black"/>
<path id="Vector_4" d="M103.844 14.1539H101.068V11.0195L97.9212 11.7009V14.1539H95.1445V17.1544H97.9212V28.6357H101.068V17.1544H103.844V14.1539Z" fill="black"/>
<path id="Vector_5" d="M62.6262 19.5665C61.9055 22.8807 58.9457 25.3643 55.4041 25.3643C51.3222 25.3643 48.0133 22.0672 48.0133 17.9998C48.0133 13.9323 51.3222 10.6353 55.4041 10.6353C58.9457 10.6353 61.9055 13.118 62.6262 16.433H66.1002C65.3397 11.3022 60.9024 7.36426 55.5421 7.36426C49.647 7.36426 44.8687 12.1256 44.8687 17.9998C44.8687 23.8739 49.647 28.6353 55.5421 28.6353C60.9024 28.6353 65.3397 24.6973 66.1002 19.5665H62.6262Z" fill="black"/>
</g>
<g id="Group_3">
<path id="Vector_6" d="M16.7678 24.5052C16.5865 22.9906 16.5567 21.6827 16.5666 20.3856C14.4693 20.4063 12.4495 19.2405 11.4861 17.2297C10.1618 14.4656 11.3372 11.156 14.1102 9.83641L9.39683 0C1.1716 3.91371 -2.31316 13.7303 1.61453 21.9263C4.91166 28.8072 12.3836 32.3578 19.5634 31.005C18.1696 28.9636 17.0871 26.7452 16.7678 24.5052Z" fill="#2756FF"/>
<path id="Vector_7" d="M28.2392 17.2645C28.2581 15.8029 28.2689 14.3413 28.2752 12.8789H32.2255V6.25413H28.2834C28.2834 4.92919 28.2816 3.60424 28.2834 2.2793L18.9116 3.60424C18.9116 4.48784 18.9116 5.37053 18.9116 6.25413H14.9839V12.8789H18.9116C18.9116 13.8353 18.9116 14.7926 18.9116 15.749C18.9991 18.9894 18.7005 21.2798 19.0857 24.5049C19.6946 28.7755 23.0729 32.9651 26.1039 36.0007L33.3296 30.5166C27.6474 25.4568 28.2392 22.0869 28.2392 17.2636V17.2645Z" fill="#FF3EB6"/>
</g>
</g>
</g>
</svg>
