<svg width="110" height="32" viewBox="0 0 110 32" fill="none" xmlns="http://www.w3.org/2000/svg">
<path d="M21.6488 31.4616H15.9223V21.0509C15.9223 18.2419 13.6431 15.9603 10.8371 15.9603C8.03115 15.9603 5.75199 18.2419 5.75199 21.0509V31.4616H0.0369263V21.0509C0.0369263 15.0889 4.88156 10.2275 10.8486 10.2275C16.8156 10.2275 21.6603 15.0774 21.6603 21.0509V31.4616H21.6488Z" fill="black"/>
<path d="M30.3302 31.4612H24.6037V10.8234C24.6037 4.84989 29.4483 0 35.4154 0V5.73273C32.6094 5.73273 30.3302 8.01436 30.3302 10.8234V11.4999C31.842 10.6858 33.5714 10.2272 35.4154 10.2272V15.9599C32.6094 15.9599 30.3302 18.2416 30.3302 21.0506V31.4612Z" fill="black"/>
<path d="M57.4741 3.15332H51.7476V31.1749H57.4741V3.15332Z" fill="black"/>
<path d="M48.9872 31.3121C43.0316 31.3121 38.1755 26.4622 38.1755 20.4887V3.57715H43.9021V20.4887C43.9021 23.2978 46.1812 25.5794 48.9872 25.5794V31.3121Z" fill="black"/>
<path d="M48.9871 9.67676H42.0466V15.4095H48.9871V9.67676Z" fill="black"/>
<path d="M76.2686 31.4616H70.5421V21.0509C70.5421 17.8979 69.0646 15.9603 68.2629 15.9603C67.4612 15.9603 65.9838 17.8865 65.9838 21.0509V31.4616H60.2573V21.0509C60.2573 14.9857 63.7733 10.2275 68.2629 10.2275C72.7525 10.2275 76.2686 14.9857 76.2686 21.0509V31.4616Z" fill="black"/>
<path d="M86.5535 31.3122H80.8269V20.9015C80.8269 17.7485 79.3495 15.8109 78.5478 15.8109C77.7461 15.8109 76.2686 17.7371 76.2686 20.9015V31.3122H70.5421V20.9015C70.5421 14.8363 74.0582 10.0781 78.5478 10.0781C83.0374 10.0781 86.5535 14.8248 86.5535 20.9015V31.3122Z" fill="black"/>
<path d="M99.1744 32.0001C96.4372 32.0001 93.8259 30.9796 91.8101 29.0993C89.7028 27.1272 88.4773 24.4558 88.3742 21.5665C88.2712 18.6772 89.3019 15.9255 91.2719 13.8158C93.2418 11.7062 95.9103 10.4794 98.7965 10.3762C101.648 10.273 104.431 11.3049 106.539 13.277C108.646 15.249 109.872 17.9205 109.963 20.8098V24.0545H94.9597C95.1659 24.3641 95.4178 24.6507 95.6927 24.9029C96.6891 25.8316 97.9604 26.2903 99.3348 26.2673C100.858 26.21 102.255 25.4877 103.183 24.2838L107.718 27.7808C105.748 30.349 102.759 31.8854 99.518 32.0001C99.3921 32.0001 99.2546 32.0001 99.1286 32.0001H99.1744ZM94.9826 18.3218H103.378C103.172 18.0122 102.92 17.7256 102.645 17.4619C101.648 16.5332 100.366 16.0401 99.0027 16.0975C97.6512 16.1433 96.3914 16.7166 95.4637 17.7141C95.2919 17.909 95.1201 18.1039 94.9826 18.3218Z" fill="black"/>
</svg>
