<svg width="380" height="400" viewBox="0 0 380 400" fill="none" xmlns="http://www.w3.org/2000/svg">
<path d="M36.5462 1.60393L380 19.6036L375.544 104.617L342.321 131.291L0.000932742 113.351L4.39688 29.4713L36.5462 1.60393Z" fill="#2756FF"/>
<path d="M69.7849 58.6516L69.6183 61.8298L61.4865 61.4036L61.1476 67.8697L72.0851 68.4429L71.9185 71.6211L46.1202 70.269L46.2868 67.0908L57.1694 67.6612L57.5083 61.1951L49.5079 60.7759L50.1989 47.5918L54.2319 47.8031L53.7075 57.809L69.7849 58.6516ZM88.298 49.061L87.8368 57.8613L79.3214 57.415L79.1629 60.4398C83.3615 60.6379 85.8671 60.6373 88.7556 60.2502L88.9513 63.4364C85.6227 63.8334 82.6591 63.766 77.2111 63.5025L75.085 63.3911L75.5623 54.2839L84.0448 54.7284L84.1901 51.9557L75.6638 51.5088L75.8263 48.4073L88.298 49.061ZM78.0463 68.7443L78.2117 65.588L97.6536 66.6069L97.1522 76.1744L93.2069 75.9676L93.5429 69.5564L78.0463 68.7443ZM89.3325 60.5662L89.4968 57.4318L94.1655 57.6765L94.3154 54.8161L89.6467 54.5714L89.8104 51.448L94.479 51.6927L94.6841 47.7802L98.6295 47.987L97.7191 65.3575L93.7737 65.1508L94.0012 60.8109L89.3325 60.5662ZM124.668 49.3516L124.215 57.9985L128.006 58.1972L127.836 61.4412L124.045 61.2425L123.564 70.4154L119.596 70.2075L120.7 49.1436L124.668 49.3516ZM101.96 54.2496L102.123 51.1372L108.534 51.4732L108.691 48.4703L112.637 48.6771L112.479 51.6799L118.869 52.0148L118.705 55.1273L101.96 54.2496ZM103.002 60.788C103.162 57.5106 106.17 55.4704 110.291 55.6863C114.368 55.9 117.114 58.2418 116.942 61.5186C116.772 64.7626 113.799 66.7607 109.723 66.5361C105.601 66.3311 102.821 64.0314 103.002 60.788ZM104.914 76.0867L105.347 67.8233L109.293 68.0301L109.027 73.1043L124.392 73.9095L124.225 77.0987L104.914 76.0867ZM106.848 60.9896C106.767 62.5349 107.984 63.4339 109.88 63.5332C111.765 63.632 113.102 62.8669 113.194 61.3222C113.265 59.7435 112.018 58.8099 110.133 58.7001C108.237 58.6117 106.931 59.4115 106.848 60.9896ZM160.807 51.2016L160.061 65.4268L156.116 65.22L156.231 63.0282L149.786 62.6904L149.944 59.6876L156.388 60.0253L156.517 57.5594L150.369 57.2372C148.405 61.3762 144.241 63.8724 137.934 64.8936L136.765 61.6124C143.299 60.669 146.42 58.1402 147.113 54.7808L138.74 54.342L138.906 51.1747L151.652 51.8427C151.607 52.6975 151.499 53.5051 151.348 54.2775L156.675 54.5566L156.861 50.9948L160.807 51.2016ZM141.083 68.5533L141.246 65.4518L160.008 66.4351L159.603 74.1614L144.841 73.3877L144.744 75.2399L160.131 76.0463L159.967 79.1806L140.623 78.1669L141.038 70.2543L155.789 71.0273L155.878 69.3286L141.083 68.5533ZM180.165 55.0514L180.046 57.32C179.896 59.9715 179.714 63.4457 178.712 68.0966L174.837 67.5859C175.699 63.521 175.923 60.4996 176.065 58.0015L165.38 57.4415L165.545 54.2852L180.165 55.0514ZM163.202 70.6905C164.791 70.7628 166.545 70.8438 168.389 70.8964L168.825 62.5673L172.716 62.7712L172.286 70.9798C175.065 71.0045 177.892 70.9549 180.506 70.7622L180.583 73.7004C174.745 74.3835 168.35 74.1473 163.409 73.8663L163.202 70.6905ZM181.321 80.5855L182.801 52.3542L186.79 52.5633L186.196 63.9062L190.042 64.1078L189.869 67.4175L186.022 67.216L185.31 80.7946L181.321 80.5855ZM216.998 66.8392L216.844 69.7764L191.046 68.4243L191.2 65.4872L216.998 66.8392ZM193.777 72.7215L193.92 69.9816L213.691 71.0178L213.342 77.681L197.527 76.8522L197.443 78.4633L214.079 79.3351L213.938 82.0311L193.367 80.9531L193.724 74.1364L209.55 74.9657L209.624 73.552L193.777 72.7215ZM194.862 56.2062L195.003 53.5212L214.521 54.5441L214.174 61.1636L198.634 60.3491L198.555 61.8615L214.577 62.7012L214.437 65.3753L194.48 64.3294L194.831 57.6333L210.339 58.446L210.413 57.0213L194.862 56.2062ZM250.335 55.8935L248.855 84.1248L244.855 83.9152L246.335 55.6839L250.335 55.8935ZM225.667 74.8983C233.125 71.8275 236.57 67.5463 237.534 61.3108L227.922 60.8071L228.085 57.7056L241.729 58.4207C241.27 66.9684 237.895 73.9237 227.563 78.1516L225.667 74.8983ZM279.042 72.5855L278.877 75.7418L253.079 74.3897L253.244 71.2334L264.192 71.8072L264.3 69.7578L256.562 69.3523L256.969 61.5931L272.477 62.4058L272.567 60.6852L257.015 59.8702L257.176 56.8125L276.694 57.8354L276.295 65.4632L260.754 64.6487L260.656 66.5228L276.711 67.3642L276.552 70.3999L268.212 69.9629L268.105 72.0123L279.042 72.5855ZM255.714 79.2533L255.877 76.1408L275.834 77.1867L275.404 85.3843L271.415 85.1753L271.682 80.0901L255.714 79.2533ZM303.748 58.6928L303.169 69.7508L307.333 69.9691L307.163 73.224L302.998 73.0057L302.269 86.9241L298.356 86.7191L299.836 58.4878L303.748 58.6928ZM280.96 64.9054L281.126 61.7382L287.515 62.073L287.713 58.303L291.658 58.5098L291.461 62.2798L297.708 62.6072L297.542 65.7744L280.96 64.9054ZM281.665 73.2724C281.86 69.3374 285.075 66.7036 289.239 66.9218C293.349 67.1372 296.282 70.0932 296.087 74.0282C295.869 77.973 292.644 80.5843 288.534 80.3799C284.37 80.1507 281.447 77.2172 281.665 73.2724ZM285.456 73.4711C285.331 75.6624 286.709 77.0424 288.704 77.1359C290.676 77.2503 292.169 76.0208 292.306 73.8301C292.397 71.6699 291.043 70.2582 289.071 70.1329C287.075 70.0503 285.559 71.3115 285.456 73.4711ZM332.036 62.637L331.896 65.311C331.7 68.8394 331.492 72.8067 330.059 78.7538L326.092 78.1283C327.446 72.8474 327.708 68.8829 327.904 65.5744L311.289 64.7036L311.454 61.5583L332.036 62.637ZM307.633 83.7326L307.801 80.5215L317.007 81.0039L317.515 71.3049L321.439 71.5105L320.93 81.2095L333.534 81.8701L333.365 85.0811L307.633 83.7326Z" fill="white"/>
<path d="M30.6048 129.109L374.058 111.109L378.514 196.123L348.26 226.124L5.94047 244.064L1.54452 160.184L30.6048 129.109Z" fill="#FF3EB6"/>
<path d="M56.8901 174.186C57.0663 177.968 59.1997 181.351 63.8104 182.516L61.8682 185.717C58.7779 184.835 56.6262 182.992 55.3099 180.522C54.2035 183.525 52.0561 185.957 48.7294 187.274L46.4598 184.228C51.2223 182.418 53.0955 178.528 52.9106 174.582L52.7768 172.028L56.766 171.819L56.8901 174.186ZM51.6674 193.428C51.475 189.965 55.062 187.744 61.0678 187.429C67.0954 187.114 70.884 188.948 71.0765 192.411C71.2481 195.896 67.6698 198.073 61.6415 198.378C55.6364 198.704 51.8391 196.913 51.6674 193.428ZM55.6019 193.222C55.673 194.789 57.7436 195.505 61.4801 195.298C65.2288 195.113 67.2242 194.184 67.153 192.616C67.0576 191.006 64.9767 190.302 61.2286 190.498C57.4914 190.694 55.5065 191.611 55.6019 193.222ZM61.0092 178.553L60.8397 175.32L66.1331 175.043L65.8614 169.859L69.8068 169.652L70.6741 186.201L66.7287 186.407L66.3025 178.276L61.0092 178.553ZM90.5804 171.421L90.7401 174.467L85.1289 174.761C85.3557 176.991 87.4565 178.914 91.6717 179.452L90.2745 182.569C87.0538 182.133 84.7769 180.835 83.4281 179.005C82.2989 181.152 80.1349 182.848 76.8596 183.679L75.0768 180.695C79.2992 179.693 81.1663 177.365 81.1507 174.97L75.5504 175.263L75.3908 172.217L81.0239 171.921L80.878 169.138L84.8234 168.931L84.9692 171.715L90.5804 171.421ZM74.3364 185.02C79.5317 184.758 86.4776 184.35 92.3786 183.294L92.8019 186.129C90.4997 186.656 88.1238 187.033 85.7877 187.332L86.2535 196.22L82.2862 196.428L81.8313 187.748C79.3816 187.975 77.0588 188.108 74.9875 188.216L74.3364 185.02ZM94.7918 196.629L93.3157 168.464L97.2392 168.258L98.7152 196.424L94.7918 196.629ZM123.277 166.894L123.731 175.541L127.522 175.342L127.692 178.586L123.901 178.785L124.381 187.958L120.414 188.166L119.31 167.102L123.277 166.894ZM101.206 174.139L101.042 171.026L107.454 170.69L107.296 167.687L111.242 167.481L111.399 170.483L117.788 170.149L117.951 173.261L101.206 174.139ZM102.925 180.532C102.743 177.256 105.521 174.912 109.642 174.697C113.719 174.483 116.694 176.525 116.866 179.802C117.036 183.046 114.288 185.344 110.21 185.546C106.09 185.773 103.084 183.777 102.925 180.532ZM106.427 195.547L105.994 187.284L109.939 187.077L110.205 192.151L125.57 191.346L125.737 194.535L106.427 195.547ZM106.772 180.331C106.853 181.876 108.157 182.643 110.053 182.543C111.938 182.445 113.188 181.544 113.118 179.998C113.024 178.421 111.685 177.623 109.8 177.71C107.904 177.821 106.689 178.753 106.772 180.331ZM150.633 167.087C150.786 170.221 154.29 173.543 160.548 174.062L159.2 177.264C154.417 176.801 150.806 174.803 148.857 171.993C147.192 175.025 143.789 177.413 139.06 178.386L137.44 175.372C143.563 174.15 146.715 170.545 146.556 167.3L146.507 166.369L150.584 166.155L150.633 167.087ZM136.501 183.245L136.335 180.078L162.133 178.726L162.299 181.893L151.691 182.449L151.945 187.304L148.033 187.509L147.778 182.654L136.501 183.245ZM140.086 193.783L139.652 185.498L143.598 185.291L143.865 190.387L159.854 189.549L160.021 192.738L140.086 193.783ZM185.45 163.591L185.864 171.493L189.656 171.294L189.827 174.56L186.035 174.759L186.51 183.822L182.488 184.033L181.428 163.802L185.45 163.591ZM163.636 179.12C169.857 177.025 173.258 173.56 173.686 169.571L164.392 170.058L164.223 166.825L177.856 166.11C178.257 173.749 173.779 179.325 165.445 182.168L163.636 179.12ZM168.536 192.292L168.034 182.714L172.045 182.503L172.38 188.893L187.69 188.09L187.857 191.28L168.536 192.292ZM203.367 163.07C209.866 162.729 213.703 164.232 213.877 167.333C214.031 170.49 210.371 172.374 203.873 172.714C197.363 173.055 193.504 171.565 193.35 168.408C193.176 165.307 196.857 163.411 203.367 163.07ZM191.263 177.859L191.098 174.724L216.831 173.376L216.995 176.51L191.263 177.859ZM194.47 182.229L194.318 179.325L213.935 178.297L214.312 185.497L198.596 186.321L198.685 188.02L215.135 187.158L215.292 190.139L194.962 191.204L194.572 183.763L210.266 182.94L210.185 181.406L194.47 182.229ZM197.492 168.191C197.543 169.584 199.588 170.016 203.72 169.81C207.906 169.58 209.873 168.938 209.8 167.546C209.735 166.308 207.705 165.733 203.519 165.963C199.386 166.169 197.406 166.954 197.492 168.191ZM248.94 160.264L250.419 188.495L246.419 188.705L244.94 160.474L248.94 160.264ZM226.394 181.743C233.49 177.91 236.468 173.292 236.775 166.99L227.164 167.493L227.001 164.392L240.646 163.677C241.083 172.226 238.453 179.496 228.619 184.781L226.394 181.743ZM277.389 176.807L277.927 187.076L273.982 187.282L273.608 180.148L258.166 180.957L258.002 177.823L277.389 176.807ZM253.468 168.478C253.236 164.468 256.338 161.382 260.613 161.18C264.24 160.968 267.258 162.986 268.169 166.114L272.86 165.868L272.501 159.029L276.447 158.823L277.321 175.514L273.376 175.72L273.03 169.112L268.328 169.358C267.74 172.598 264.959 174.909 261.343 175.098C257.069 175.322 253.66 172.567 253.468 168.478ZM257.216 168.281C257.337 170.583 259.04 171.845 261.167 171.745C263.249 171.625 264.778 170.193 264.68 167.89C264.542 165.688 262.87 164.402 260.788 164.511C258.662 164.623 257.101 166.078 257.216 168.281ZM293.933 162.236L294.097 165.381L280.442 166.097L280.277 162.952L285.209 162.693L285.025 159.175L288.915 158.971L289.1 162.489L293.933 162.236ZM281.538 174.007C281.323 170.106 283.807 167.195 287.402 167.007C291.008 166.818 293.729 169.456 293.944 173.357C294.14 177.314 291.711 180.232 288.105 180.421C284.511 180.61 281.734 177.964 281.538 174.007ZM285.012 173.825C285.114 175.984 286.297 177.164 287.929 177.068C289.519 176.995 290.572 175.698 290.47 173.539C290.348 171.424 289.163 170.201 287.574 170.284C285.941 170.369 284.89 171.71 285.012 173.825ZM296.163 184.878L294.777 158.422L298.481 158.228L299.054 169.166L301.345 169.046L300.742 157.549L304.501 157.352L305.981 185.584L302.222 185.781L301.51 172.202L299.22 172.322L299.867 184.684L296.163 184.878ZM334.471 177.541L334.64 180.763L308.842 182.115L308.673 178.893L314.427 178.591L314.064 171.665C311.814 170.464 310.394 168.527 310.274 166.039C310.024 161.481 314.338 158.232 320.453 157.912C326.568 157.591 331.242 160.369 331.481 164.928C331.609 167.383 330.43 169.422 328.373 170.849L328.74 177.841L334.471 177.541ZM314.165 165.835C314.31 168.608 317.051 170.168 321.085 169.967C325.084 169.747 327.713 167.905 327.579 165.132C327.42 162.305 324.616 160.804 320.617 161.035C316.583 161.225 314.017 163.008 314.165 165.835ZM318.339 178.386L324.739 178.051L324.452 172.56C323.453 172.799 322.385 172.965 321.245 173.025C320.127 173.083 319.059 173.04 318.051 172.895L318.339 178.386Z" fill="white"/>
<path d="M5.24083 261.21L34.5328 233.003H375.272V314.846L344.894 341.969H5.24083V261.21Z" fill="white" stroke="url(#paint0_linear_2960_2328)" stroke-width="4.54026"/>
<path d="M231.599 293.467H214.917C215.37 296.665 217.403 299.098 221.382 299.098C223.461 299.098 225.044 298.468 225.903 297.116H231.056C229.7 300.945 225.948 303.197 221.336 303.197C214.645 303.197 210.125 298.376 210.125 292.07C210.125 285.764 214.601 280.943 221.065 280.943C228.117 280.943 232.503 286.303 231.599 293.466V293.467ZM215.007 290.224H226.942C226.671 286.754 224.41 284.908 221.11 284.908C217.584 284.908 215.549 287.25 215.007 290.224Z" fill="black"/>
<path d="M247.975 281.572V285.986C244.585 286.122 242.007 287.383 240.11 289.861V303.195H235.408V282.023H240.11V284.906C242.053 282.788 244.721 281.572 247.975 281.572Z" fill="black"/>
<path d="M266.363 276.471C266.363 274.804 267.673 273.588 269.346 273.588C271.019 273.588 272.329 274.804 272.329 276.471C272.329 278.137 270.973 279.353 269.346 279.353C267.719 279.353 266.363 278.137 266.363 276.471ZM271.698 281.574V303.197H267.042V281.574H271.698Z" fill="black"/>
<path d="M263.975 281.576H259.829V276.896L255.131 277.914V281.576H250.986V286.056H255.131V303.198H259.829V286.056H263.975V281.576Z" fill="black"/>
<path d="M202.435 289.656C201.359 294.604 196.94 298.312 191.653 298.312C185.558 298.312 180.618 293.389 180.618 287.317C180.618 281.244 185.558 276.321 191.653 276.321C196.94 276.321 201.359 280.028 202.435 284.977H207.622C206.487 277.317 199.861 271.438 191.859 271.438C183.057 271.438 175.923 278.546 175.923 287.317C175.923 296.087 183.057 303.196 191.859 303.196C199.861 303.196 206.487 297.316 207.622 289.656H202.435Z" fill="black"/>
<path d="M133.966 297.03C133.696 294.769 133.651 292.816 133.666 290.88C130.535 290.91 127.519 289.17 126.081 286.168C124.103 282.041 125.858 277.099 129.999 275.129L122.961 260.443C110.681 266.287 105.478 280.943 111.342 293.18C116.265 303.453 127.421 308.754 138.14 306.734C136.059 303.687 134.443 300.374 133.966 297.03Z" fill="#2756FF"/>
<path d="M151.093 286.221C151.121 284.039 151.137 281.857 151.147 279.673H157.044V269.782H151.159C151.159 267.804 151.156 265.826 151.159 263.848L137.166 265.826C137.166 267.145 137.166 268.463 137.166 269.782H131.302V279.673H137.166C137.166 281.101 137.166 282.53 137.166 283.958C137.297 288.796 136.851 292.216 137.426 297.031C138.335 303.407 143.379 309.662 147.905 314.194L158.693 306.007C150.209 298.452 151.093 293.421 151.093 286.219V286.221Z" fill="#FF3EB6"/>
<path d="M118.301 386.366C118.301 383.28 120.802 380.806 123.888 380.806C126.548 380.806 128.783 382.668 129.155 385.169L126.841 385.169C126.575 383.892 125.298 382.987 123.888 382.987C122.026 382.987 120.509 384.504 120.509 386.366C120.509 388.228 122.026 389.744 123.888 389.744C125.298 389.744 126.389 388.84 126.655 387.563L128.943 387.563C128.597 390.064 126.548 391.926 123.888 391.926C120.802 391.926 118.301 389.452 118.301 386.366ZM123.782 396.289C118.328 396.289 113.832 391.846 113.859 386.366C113.859 380.859 118.328 376.443 123.782 376.443C129.288 376.443 133.705 380.859 133.705 386.366C133.731 391.846 129.288 396.289 123.782 396.289ZM123.782 394.081C128.065 394.081 131.523 390.622 131.497 386.366C131.47 382.083 128.038 378.651 123.782 378.651C119.552 378.651 116.093 382.109 116.067 386.366C116.04 390.596 119.525 394.081 123.782 394.081ZM136.897 395.996L136.87 394.24L143.441 387.323C145.729 384.903 146.82 383.599 146.82 381.817C146.82 379.848 145.144 378.544 142.989 378.544C140.701 378.544 139.238 380.008 139.238 382.162L136.977 382.162C136.95 378.757 139.584 376.469 143.069 376.469C146.554 376.469 149.055 378.81 149.055 381.817C149.055 383.971 148.044 385.647 144.638 389.159L140.222 393.708L140.222 393.868L149.4 393.868L149.4 395.996L136.897 395.996ZM159.19 396.262C154.907 396.262 152.46 392.671 152.46 386.366C152.46 380.114 154.96 376.469 159.19 376.469C163.42 376.469 165.921 380.114 165.921 386.366C165.921 392.671 163.447 396.262 159.19 396.262ZM159.19 394.134C161.957 394.134 163.58 391.341 163.58 386.366C163.58 381.391 161.957 378.544 159.19 378.544C156.424 378.544 154.774 381.391 154.774 386.366C154.774 391.341 156.397 394.134 159.19 394.134ZM169.113 395.996L169.087 394.24L175.658 387.323C177.946 384.903 179.036 383.599 179.036 381.817C179.036 379.848 177.36 378.544 175.205 378.544C172.918 378.544 171.454 380.008 171.454 382.162L169.193 382.162C169.167 378.757 171.8 376.469 175.285 376.469C178.77 376.469 181.271 378.81 181.271 381.817C181.271 383.971 180.26 385.647 176.855 389.159L172.439 393.708L172.439 393.868L181.617 393.868L181.617 395.996L169.113 395.996ZM184.197 392.059L184.197 390.09L192.87 376.735L195.823 376.735L195.823 389.957L198.51 389.957L198.51 392.059L195.823 392.059L195.823 395.996L193.535 395.996L193.535 392.059L184.197 392.059ZM186.778 389.957L193.535 389.957L193.535 379.768L193.296 379.768L186.778 389.798L186.778 389.957ZM221.974 382.801C221.415 380.141 219.127 378.704 216.6 378.704C213.115 378.704 210.401 381.391 210.401 386.366C210.401 391.341 213.115 394.027 216.6 394.027C219.127 394.027 221.388 392.591 221.974 389.957L224.368 389.957C223.676 393.894 220.511 396.262 216.6 396.262C211.652 396.262 208.087 392.458 208.087 386.366C208.087 380.274 211.652 376.469 216.6 376.469C220.484 376.469 223.65 378.81 224.368 382.801L221.974 382.801ZM233.493 396.289C229.316 396.289 226.736 393.336 226.736 388.893C226.736 384.45 229.343 381.364 233.28 381.364C236.313 381.364 239.505 383.227 239.505 388.574L239.505 389.532L229.023 389.532C229.13 392.591 230.912 394.267 233.493 394.267C235.222 394.267 236.313 393.522 236.845 392.617L239.292 392.617C238.601 394.799 236.472 396.289 233.493 396.289ZM229.05 387.59L237.191 387.59C237.191 385.169 235.648 383.386 233.28 383.386C230.779 383.386 229.183 385.355 229.05 387.59ZM242.485 395.996L242.485 381.551L244.693 381.551L244.693 383.759L244.852 383.759C245.384 382.295 246.874 381.311 248.577 381.311C248.923 381.311 249.508 381.338 249.774 381.364L249.774 383.679C249.614 383.626 248.976 383.519 248.391 383.519C246.316 383.519 244.773 384.956 244.773 386.898L244.773 395.996L242.485 395.996ZM259.218 381.551L259.218 383.466L256.185 383.466L256.185 391.846C256.185 393.708 257.09 394.001 258.074 394.001C258.5 394.001 259.085 393.974 259.431 393.948L259.431 396.076C259.085 396.129 258.5 396.182 257.835 396.182C255.919 396.182 253.871 394.985 253.871 392.431L253.871 383.466L251.689 383.466L251.689 381.551L253.871 381.551L253.871 378.092L256.185 378.092L256.185 381.551L259.218 381.551ZM262.171 395.996L262.171 381.551L264.459 381.551L264.459 395.996L262.171 395.996ZM263.315 379.156C262.437 379.156 261.719 378.491 261.719 377.64C261.719 376.789 262.437 376.124 263.315 376.124C264.193 376.124 264.938 376.789 264.938 377.64C264.938 378.491 264.193 379.156 263.315 379.156Z" fill="black" fill-opacity="0.6"/>
<defs>
<linearGradient id="paint0_linear_2960_2328" x1="2.9707" y1="287.486" x2="377.542" y2="287.486" gradientUnits="userSpaceOnUse">
<stop stop-color="#2756FF"/>
<stop offset="0.38" stop-color="#FF3EB6"/>
</linearGradient>
</defs>
</svg>
