<svg width="304" height="320" viewBox="0 0 304 320" fill="none" xmlns="http://www.w3.org/2000/svg">
<path d="M29.2372 1.28119L304 15.6809L300.436 83.6915L273.857 105.031L0.0010397 90.6788L3.5178 23.575L29.2372 1.28119Z" fill="#2756FF"/>
<path d="M55.8692 46.1051L55.7354 48.6591L49.2389 48.3186L48.9673 53.5009L57.7202 53.9596L57.5876 56.4887L36.9329 55.4062L37.0655 52.8771L45.7687 53.3332L46.0403 48.151L39.6431 47.8157L40.1953 37.2776L43.4436 37.4478L43.0251 45.432L55.8692 46.1051ZM70.6911 38.4531L70.3221 45.4951L63.5033 45.1377L63.3773 47.5429C66.7371 47.7189 68.7266 47.7113 71.0429 47.3976L71.2079 49.9423C68.5549 50.2757 66.1706 50.2253 61.8066 49.9966L60.1205 49.9083L60.5025 42.6184L67.2717 42.9731L67.3874 40.7663L60.5686 40.409L60.6985 37.9294L70.6911 38.4531ZM78.9412 37.5926L78.2135 51.4781L75.0645 51.313L75.2464 47.8417L71.5023 47.6455L71.6335 45.1411L75.3777 45.3373L75.4972 43.0561L71.7531 42.8599L71.8843 40.3556L75.6285 40.5518L75.7922 37.4276L78.9412 37.5926ZM78.1602 52.4947L77.76 60.1317L74.611 59.9667L74.8787 54.8588L62.4809 54.2091L62.6135 51.6799L78.1602 52.4947ZM99.7695 38.6841L99.4069 45.6021L102.457 45.7619L102.322 48.3407L99.2718 48.1808L98.8871 55.5203L95.7133 55.354L96.5957 38.5178L99.7695 38.6841ZM95.1332 40.8032L95.002 43.3076L81.6124 42.6058L81.7437 40.1015L86.8763 40.3705L87.0024 37.9653L90.1514 38.1304L90.0254 40.5355L95.1332 40.8032ZM88.2656 43.7502C91.5386 43.9217 93.7276 45.8017 93.5911 48.4053C93.4547 51.0088 91.0838 52.6001 87.8108 52.4286C84.513 52.2558 82.2967 50.424 82.4331 47.8205C82.5696 45.217 84.9678 43.5773 88.2656 43.7502ZM88.1396 46.1553C86.6257 46.1009 85.5727 46.7419 85.5326 47.9829C85.4428 49.2214 86.4243 49.9442 87.9369 50.0234C89.4494 50.1027 90.5259 49.4878 90.5909 48.248C90.6558 47.0082 89.6508 46.2594 88.1396 46.1553ZM99.5598 58.3403L99.4273 60.8694L83.9797 60.0599L84.3253 53.4643L87.4744 53.6293L87.2613 57.6958L99.5598 58.3403ZM128.682 40.1745L128.087 51.5309L124.938 51.3659L125.029 49.6302L119.872 49.3599L119.998 46.9547L125.155 47.225L125.259 45.2414L120.35 44.9841C118.771 48.3076 115.434 50.3083 110.381 51.1251L109.45 48.4905C114.673 47.7324 117.178 45.7254 117.742 43.0324L111.022 42.6802L111.156 40.1263L121.372 40.6616C121.336 41.3435 121.252 41.998 121.12 42.6127L125.385 42.8362L125.533 40.0095L128.682 40.1745ZM128.044 52.3492L127.721 58.5232L115.918 57.9047L115.84 59.3924L128.139 60.037L128.007 62.5413L112.535 61.7304L112.866 55.4076L124.669 56.0261L124.741 54.6624L112.913 54.0425L113.043 51.563L128.044 52.3492ZM144.185 43.2496L144.09 45.0597C143.954 47.1908 143.808 49.9679 143.017 53.6808L139.906 53.2691C140.586 50.0228 140.762 47.6078 140.904 45.6137L132.349 45.1654L132.482 42.6363L144.185 43.2496ZM138.218 49.4263L137.874 55.9723C140.098 56.0018 142.363 55.9589 144.448 55.7946L144.523 58.1606C139.844 58.7111 134.708 58.5165 130.767 58.285L130.602 55.7403C131.867 55.7942 133.28 55.8683 134.745 55.9077L135.093 49.2625L138.218 49.4263ZM149.486 41.2648L149.01 50.34L152.085 50.5011L151.947 53.1294L148.872 52.9683L148.303 63.8287L145.105 63.6611L146.287 41.0972L149.486 41.2648ZM173.652 52.6757L173.529 55.0312L152.874 53.9488L152.997 51.5932L173.652 52.6757ZM170.99 56.0171L170.711 61.3481L158.065 60.6854L157.998 61.9748L171.313 62.6726L171.2 64.8298L154.736 63.9669L155.022 58.5119L167.692 59.176L167.752 58.0354L155.057 57.37L155.171 55.188L170.99 56.0171ZM171.657 42.8246L171.379 48.1308L158.956 47.4798L158.893 48.6948L171.712 49.3666L171.6 51.499L155.632 50.6621L155.913 45.3063L168.31 45.956L168.37 44.8154L155.923 44.1631L156.036 42.0059L171.657 42.8246ZM200.317 43.9287L199.134 66.4927L195.935 66.325L197.118 43.7611L200.317 43.9287ZM193.424 45.9296C193.065 52.7731 190.363 58.3252 182.104 61.7214L180.575 59.1052C186.546 56.6583 189.3 53.2222 190.071 48.2402L182.384 47.8373L182.514 45.3578L193.424 45.9296ZM223.288 57.2661L223.155 59.7952L202.501 58.7127L202.633 56.1836L211.386 56.6423L211.472 55.0058L205.298 54.6822L205.623 48.4834L218.02 49.1331L218.093 47.7445L205.646 47.0922L205.774 44.6374L221.396 45.4561L221.075 51.5806L208.652 50.9296L208.574 52.4173L221.418 53.0904L221.291 55.5204L214.621 55.1708L214.535 56.8073L223.288 57.2661ZM220.707 60.9598L220.364 67.5058L217.166 67.3382L217.379 63.2717L204.609 62.6025L204.739 60.123L220.707 60.9598ZM243.039 46.1677L242.577 54.9949L245.899 55.1691L245.763 57.7726L242.44 57.5985L241.857 68.7317L238.733 68.5679L239.915 46.004L243.039 46.1677ZM238.201 49.2956L238.069 51.8248L224.803 51.1296L224.935 48.6004L230.043 48.8681L230.202 45.843L233.376 46.0094L233.217 49.0344L238.201 49.2956ZM231.431 52.745C234.729 52.9178 237.067 55.2781 236.902 58.4271C236.737 61.5761 234.165 63.6791 230.867 63.5062C227.545 63.3321 225.207 60.9719 225.372 57.8228C225.537 54.6738 228.109 52.5709 231.431 52.745ZM231.298 55.2989C229.709 55.2406 228.488 56.2457 228.397 57.9814C228.305 59.7419 229.416 60.8443 231.004 60.9027C232.59 61.0107 233.785 60.029 233.877 58.2686C233.968 56.5329 232.883 55.4069 231.298 55.2989ZM265.674 49.3182L265.562 51.4506C265.414 54.2773 265.248 57.4511 264.08 62.1886L260.923 61.6999C262.002 57.4799 262.205 54.308 262.369 51.6562L249.079 50.9597L249.21 48.4554L265.674 49.3182ZM266.857 64.6962L266.722 67.2749L246.142 66.1964L246.277 63.6176L253.641 64.0036L254.048 56.2426L257.197 56.4076L256.79 64.1686L266.857 64.6962Z" fill="white"/>
<path d="M24.4838 103.285L299.247 88.8855L302.811 156.896L278.608 180.897L4.75238 195.249L1.23562 128.145L24.4838 103.285Z" fill="#FF3EB6"/>
<path d="M45.4728 138.56C45.6066 141.586 47.3142 144.281 50.9929 145.207L49.4615 147.774C46.9874 147.058 45.2566 145.583 44.2202 143.598C43.327 146.007 41.602 147.962 38.935 149.022L37.1411 146.58C40.9443 145.137 42.4222 142.026 42.282 138.876L42.1741 136.818L45.3728 136.65L45.4728 138.56ZM55.8002 134.935L56.4928 148.151L53.3438 148.316L53.0033 141.82L48.7633 142.042L48.6281 139.463L52.8682 139.241L52.6512 135.1L55.8002 134.935ZM48.8126 149.151C53.6229 148.899 56.6581 150.356 56.8284 153.131C56.9492 155.91 54.0816 157.651 49.2713 157.903C44.461 158.156 41.4271 156.723 41.2816 153.946C41.1361 151.169 44.0023 149.403 48.8126 149.151ZM48.9412 151.605C45.941 151.763 44.3631 152.492 44.4306 153.781C44.4956 155.021 46.1424 155.606 49.1427 155.449C52.1429 155.291 53.7443 154.536 53.6794 153.296C53.6118 152.007 51.9415 151.448 48.9412 151.605ZM72.4075 136.328L72.5361 138.782L68.0729 139.016C68.2278 140.786 69.9129 142.339 73.2921 142.771L72.1797 145.266C69.5998 144.904 67.7802 143.868 66.7084 142.395C65.7919 144.121 64.0605 145.48 61.4354 146.152L60.0173 143.765C63.3936 142.954 64.8876 141.098 64.8743 139.184L60.3863 139.419L60.2577 136.964L64.7705 136.728L64.6548 134.521L67.8286 134.355L67.9443 136.561L72.4075 136.328ZM77.7455 133.81L78.9268 156.349L75.8025 156.513L74.6213 133.974L77.7455 133.81ZM59.428 147.227C63.5936 147.008 69.1465 146.693 73.8748 145.823L74.1927 148.094C72.3499 148.514 70.4524 148.837 68.5744 149.06L68.9474 156.176L65.7983 156.341L65.4345 149.398C63.4795 149.575 61.6081 149.686 59.9586 149.76L59.428 147.227ZM98.5738 132.719L98.9363 139.637L101.986 139.477L102.121 142.055L99.0715 142.215L99.4561 149.555L96.2823 149.721L95.4 132.885L98.5738 132.719ZM94.1844 135.311L94.3157 137.815L80.9261 138.517L80.7949 136.012L85.9275 135.743L85.8015 133.338L88.9505 133.173L89.0766 135.578L94.1844 135.311ZM87.6625 138.959C90.9355 138.788 93.3089 140.429 93.4454 143.032C93.5818 145.636 91.3903 147.466 88.1173 147.638C84.8195 147.811 82.4239 146.221 82.2874 143.617C82.151 141.013 84.3647 139.132 87.6625 138.959ZM87.7885 141.364C86.2773 141.469 85.2971 142.216 85.3868 143.455C85.427 144.696 86.4787 145.312 87.9913 145.233C89.5038 145.153 90.5101 144.429 90.4451 143.189C90.3802 141.95 89.3024 141.31 87.7885 141.364ZM100.42 152.289L100.552 154.818L85.1049 155.628L84.7592 149.032L87.9082 148.867L88.1213 152.933L100.42 152.289ZM120.461 132.864C120.593 135.369 123.393 138.032 128.387 138.441L127.328 141.008C123.493 140.649 120.599 139.048 119.051 136.792C117.712 139.224 114.99 141.132 111.213 141.902L109.918 139.484C114.816 138.531 117.325 135.639 117.213 133.035L117.174 132.291L120.422 132.121L120.461 132.864ZM129.677 142.178L129.809 144.707L121.304 145.153L121.508 149.045L118.384 149.209L118.18 145.316L109.155 145.789L109.022 143.26L129.677 142.178ZM127.844 150.852L127.976 153.381L112.033 154.216L111.686 147.596L114.835 147.431L115.049 151.522L127.844 150.852ZM148.312 130.087L148.644 136.41L151.694 136.25L151.83 138.854L148.78 139.013L149.16 146.254L145.961 146.421L145.114 130.255L148.312 130.087ZM142.251 132.095C142.571 138.195 138.976 142.66 132.307 144.924L130.862 142.489C135.833 140.811 138.56 138.045 138.915 134.856L131.477 135.246L131.341 132.667L142.251 132.095ZM150.11 149.685L150.243 152.214L134.795 153.023L134.394 145.362L137.592 145.194L137.861 150.327L150.11 149.685ZM162.661 129.658C167.843 129.387 170.915 130.593 171.07 133.071C171.176 135.577 168.247 137.098 163.065 137.37C157.858 137.643 154.762 136.437 154.63 133.933C154.5 131.453 157.454 129.931 162.661 129.658ZM162.782 131.964C159.459 132.138 157.876 132.768 157.953 133.759C157.987 134.876 159.62 135.213 162.943 135.039C166.29 134.863 167.855 134.359 167.797 133.243C167.745 132.251 166.129 131.789 162.782 131.964ZM173.411 137.897L173.542 140.401L152.962 141.479L152.831 138.975L173.411 137.897ZM171.107 141.846L171.408 147.599L158.837 148.258L158.909 149.621L172.075 148.931L172.2 151.312L155.934 152.164L155.622 146.213L168.169 145.556L168.104 144.316L155.532 144.975L155.411 142.669L171.107 141.846ZM199.118 127.424L200.301 149.988L197.102 150.156L195.92 127.592L199.118 127.424ZM192.473 130.135C192.831 136.978 190.724 142.782 182.865 147.023L181.071 144.581C186.754 141.524 189.133 137.819 189.379 132.783L181.693 133.186L181.563 130.706L192.473 130.135ZM221.866 140.653L222.296 148.86L219.147 149.025L218.848 143.323L206.5 143.97L206.368 141.465L221.866 140.653ZM221.112 126.272L221.811 139.612L218.662 139.777L218.385 134.495L214.616 134.693C214.143 137.279 211.928 139.135 209.039 139.287C205.617 139.466 202.89 137.247 202.744 133.972C202.551 130.775 205.032 128.308 208.456 128.153C211.368 127.976 213.777 129.59 214.505 132.088L218.249 131.892L217.963 126.437L221.112 126.272ZM208.595 130.806C206.884 130.896 205.627 132.056 205.744 133.815C205.816 135.676 207.186 136.673 208.897 136.584C210.559 136.497 211.792 135.363 211.695 133.503C211.602 131.743 210.256 130.719 208.595 130.806ZM235.104 128.994L235.235 131.499L224.325 132.071L224.194 129.566L228.111 129.361L227.963 126.534L231.087 126.371L231.236 129.197L235.104 128.994ZM229.883 132.799C232.759 132.648 234.934 134.772 235.123 137.895C235.263 141.045 233.322 143.384 230.446 143.535C227.569 143.686 225.345 141.565 225.18 138.416C225.016 135.292 227.007 132.949 229.883 132.799ZM230.021 135.427C228.706 135.496 227.867 136.559 227.957 138.27C228.046 139.981 228.991 140.926 230.305 140.857C231.57 140.791 232.41 139.752 232.346 138.04C232.231 136.331 231.285 135.361 230.021 135.427ZM243.552 125.096L244.734 147.66L241.734 147.817L241.165 136.956L239.33 137.053L239.849 146.946L236.898 147.101L235.79 125.95L238.74 125.795L239.198 134.523L241.032 134.427L240.552 125.253L243.552 125.096ZM267.545 141.218L267.681 143.821L247.027 144.904L246.89 142.3L251.502 142.059L251.212 136.529C249.41 135.58 248.272 134.035 248.168 132.039C247.976 128.394 251.42 125.777 256.329 125.52C261.214 125.264 264.937 127.506 265.152 131.149C265.242 133.096 264.296 134.737 262.665 135.879L262.958 141.458L267.545 141.218ZM256.46 128.024C253.237 128.193 251.172 129.594 251.292 131.876C251.407 134.082 253.611 135.334 256.835 135.166C260.033 134.998 262.119 133.521 262.028 131.313C261.884 129.033 259.659 127.857 256.46 128.024ZM254.626 141.895L259.759 141.626L259.529 137.237C258.732 137.441 257.868 137.573 256.963 137.62C256.058 137.668 255.199 137.638 254.396 137.506L254.626 141.895Z" fill="white"/>
<path d="M4.19257 208.966L27.6261 186.4H300.218V251.875L275.916 273.573H4.19257V208.966Z" fill="white" stroke="url(#paint0_linear_3006_2079)" stroke-width="3.63221"/>
<path d="M185.279 234.773H171.933C172.295 237.332 173.922 239.278 177.105 239.278C178.769 239.278 180.035 238.773 180.722 237.692H184.845C183.76 240.755 180.758 242.557 177.068 242.557C171.716 242.557 168.1 238.7 168.1 233.655C168.1 228.61 171.68 224.754 176.852 224.754C182.494 224.754 186.002 229.042 185.279 234.772V234.773ZM172.005 232.178H181.553C181.336 229.403 179.527 227.925 176.887 227.925C174.067 227.925 172.439 229.799 172.005 232.178Z" fill="black"/>
<path d="M198.38 225.256V228.787C195.668 228.895 193.605 229.905 192.087 231.887V242.554H188.326V225.617H192.087V227.923C193.642 226.229 195.776 225.256 198.38 225.256Z" fill="black"/>
<path d="M213.09 221.175C213.09 219.842 214.138 218.869 215.476 218.869C216.815 218.869 217.863 219.842 217.863 221.175C217.863 222.509 216.778 223.481 215.476 223.481C214.175 223.481 213.09 222.509 213.09 221.175ZM217.358 225.258V242.557H213.633V225.258H217.358Z" fill="black"/>
<path d="M211.179 225.259H207.863V221.516L204.105 222.329V225.259H200.788V228.843H204.105V242.557H207.863V228.843H211.179V225.259Z" fill="black"/>
<path d="M161.948 231.723C161.087 235.681 157.552 238.648 153.322 238.648C148.446 238.648 144.494 234.71 144.494 229.852C144.494 224.993 148.446 221.055 153.322 221.055C157.552 221.055 161.087 224.021 161.948 227.98H166.097C165.189 221.852 159.889 217.148 153.486 217.148C146.445 217.148 140.738 222.835 140.738 229.852C140.738 236.868 146.445 242.555 153.486 242.555C159.889 242.555 165.189 237.851 166.097 231.723H161.948Z" fill="black"/>
<path d="M107.172 237.623C106.956 235.814 106.92 234.252 106.932 232.702C104.427 232.727 102.014 231.335 100.864 228.933C99.282 225.631 100.686 221.678 103.998 220.102L98.3683 208.354C88.5439 213.028 84.3817 224.753 89.0729 234.543C93.0111 242.761 101.936 247.002 110.511 245.386C108.847 242.948 107.554 240.298 107.172 237.623Z" fill="#2756FF"/>
<path d="M120.873 228.975C120.896 227.229 120.909 225.483 120.916 223.736H125.635V215.824H120.926C120.926 214.241 120.924 212.659 120.926 211.076L109.732 212.659C109.732 213.714 109.732 214.768 109.732 215.824H105.041V223.736H109.732C109.732 224.879 109.732 226.022 109.732 227.165C109.837 231.035 109.48 233.771 109.94 237.623C110.668 242.724 114.703 247.728 118.323 251.354L126.953 244.803C120.167 238.76 120.873 234.735 120.873 228.974V228.975Z" fill="#FF3EB6"/>
<path d="M95.0413 309.692C95.0413 307.223 97.0419 305.244 99.5106 305.244C101.639 305.244 103.427 306.734 103.725 308.735L101.873 308.735C101.66 307.713 100.639 306.989 99.5106 306.989C98.0209 306.989 96.8078 308.202 96.8078 309.692C96.8078 311.182 98.0209 312.395 99.5106 312.395C100.639 312.395 101.511 311.671 101.724 310.65L103.554 310.65C103.278 312.65 101.639 314.14 99.5106 314.14C97.0419 314.14 95.0413 312.161 95.0413 309.692ZM99.4255 317.631C95.0626 317.631 91.4659 314.076 91.4871 309.692C91.4871 305.287 95.0626 301.754 99.4255 301.754C103.831 301.754 107.364 305.287 107.364 309.692C107.385 314.076 103.831 317.631 99.4255 317.631ZM99.4255 315.864C102.852 315.864 105.619 313.097 105.597 309.692C105.576 306.266 102.831 303.52 99.4255 303.52C96.0416 303.52 93.2749 306.287 93.2536 309.692C93.2323 313.076 96.0203 315.864 99.4255 315.864ZM109.918 317.396L109.896 315.992L115.153 310.458C116.984 308.522 117.856 307.479 117.856 306.053C117.856 304.478 116.515 303.435 114.791 303.435C112.961 303.435 111.791 304.606 111.791 306.33L109.982 306.33C109.96 303.605 112.067 301.775 114.855 301.775C117.643 301.775 119.644 303.648 119.644 306.053C119.644 307.777 118.835 309.118 116.111 311.927L112.578 315.566L112.578 315.694L119.921 315.694L119.921 317.396L109.918 317.396ZM127.752 317.609C124.326 317.609 122.368 314.736 122.368 309.692C122.368 304.691 124.369 301.775 127.752 301.775C131.136 301.775 133.137 304.691 133.137 309.692C133.137 314.736 131.158 317.609 127.752 317.609ZM127.752 315.907C129.966 315.907 131.264 313.672 131.264 309.692C131.264 305.712 129.966 303.435 127.752 303.435C125.539 303.435 124.22 305.712 124.22 309.692C124.22 313.672 125.518 315.907 127.752 315.907ZM135.691 317.396L135.67 315.992L140.926 310.458C142.757 308.522 143.629 307.479 143.629 306.053C143.629 304.478 142.288 303.435 140.565 303.435C138.734 303.435 137.564 304.606 137.564 306.33L135.755 306.33C135.733 303.605 137.84 301.775 140.628 301.775C143.416 301.775 145.417 303.648 145.417 306.053C145.417 307.777 144.608 309.118 141.884 311.927L138.351 315.566L138.351 315.694L145.694 315.694L145.694 317.396L135.691 317.396ZM147.758 314.247L147.758 312.672L154.696 301.988L157.058 301.988L157.058 312.565L159.208 312.565L159.208 314.247L157.058 314.247L157.058 317.396L155.228 317.396L155.228 314.247L147.758 314.247ZM149.822 312.565L155.228 312.565L155.228 304.414L155.037 304.414L149.822 312.438L149.822 312.565ZM177.979 306.84C177.532 304.712 175.702 303.563 173.68 303.563C170.892 303.563 168.721 305.712 168.721 309.692C168.721 313.672 170.892 315.822 173.68 315.822C175.702 315.822 177.511 314.672 177.979 312.565L179.895 312.565C179.341 315.715 176.809 317.609 173.68 317.609C169.722 317.609 166.87 314.566 166.87 309.692C166.87 304.819 169.722 301.775 173.68 301.775C176.787 301.775 179.32 303.648 179.895 306.84L177.979 306.84ZM187.194 317.631C183.853 317.631 181.789 315.268 181.789 311.714C181.789 308.16 183.874 305.691 187.024 305.691C189.45 305.691 192.004 307.181 192.004 311.459L192.004 312.225L183.619 312.225C183.704 314.672 185.13 316.013 187.194 316.013C188.578 316.013 189.45 315.417 189.876 314.694L191.834 314.694C191.281 316.439 189.578 317.631 187.194 317.631ZM183.64 310.671L190.153 310.671C190.153 308.735 188.918 307.309 187.024 307.309C185.024 307.309 183.747 308.883 183.64 310.671ZM194.388 317.396L194.388 305.84L196.154 305.84L196.154 307.607L196.282 307.607C196.708 306.436 197.9 305.649 199.262 305.649C199.538 305.649 200.006 305.67 200.219 305.691L200.219 307.543C200.092 307.5 199.581 307.415 199.113 307.415C197.453 307.415 196.218 308.564 196.218 310.118L196.218 317.396L194.388 317.396ZM207.775 305.84L207.775 307.372L205.348 307.372L205.348 314.076C205.348 315.566 206.072 315.8 206.859 315.8C207.2 315.8 207.668 315.779 207.945 315.758L207.945 317.46C207.668 317.503 207.2 317.545 206.668 317.545C205.136 317.545 203.497 316.588 203.497 314.545L203.497 307.372L201.752 307.372L201.752 305.84L203.497 305.84L203.497 303.073L205.348 303.073L205.348 305.84L207.775 305.84ZM210.137 317.396L210.137 305.84L211.967 305.84L211.967 317.396L210.137 317.396ZM211.052 303.925C210.35 303.925 209.775 303.393 209.775 302.712C209.775 302.031 210.35 301.498 211.052 301.498C211.754 301.498 212.35 302.031 212.35 302.712C212.35 303.393 211.754 303.925 211.052 303.925Z" fill="black" fill-opacity="0.6"/>
<defs>
<linearGradient id="paint0_linear_3006_2079" x1="2.37646" y1="229.987" x2="302.034" y2="229.987" gradientUnits="userSpaceOnUse">
<stop stop-color="#2756FF"/>
<stop offset="0.38" stop-color="#FF3EB6"/>
</linearGradient>
</defs>
</svg>
