<svg width="24" height="26" viewBox="0 0 24 26" fill="none" xmlns="http://www.w3.org/2000/svg">
<g id="Group">
<path id="Vector" d="M7.9544 25V25.5H1.63634C1.33497 25.5 1.04593 25.3803 0.832827 25.1672C0.619722 24.9541 0.5 24.665 0.5 24.3637V10.1594C0.499933 10.0766 0.517949 9.99483 0.552789 9.91975C0.587629 9.84467 0.638451 9.77811 0.701701 9.72473M7.9544 25H8.4544V18.1138C8.4544 17.9631 8.51426 17.8186 8.62081 17.712M7.9544 25H1.63634C1.46757 25 1.30572 24.933 1.18638 24.8136C1.06704 24.6943 1 24.5324 1 24.3637L1 10.1594L1 10.159C0.999992 10.149 1.00215 10.1392 1.00633 10.1302C1.01048 10.1213 1.01652 10.1133 1.02403 10.107L1.02377 10.1072L0.701701 9.72473M7.9544 25V18.1138C7.9544 17.8305 8.06694 17.5588 8.26725 17.3585L8.62081 17.712M8.62081 17.712C8.72736 17.6055 8.87188 17.5456 9.02257 17.5456H14.7043C14.855 17.5456 14.9995 17.6055 15.106 17.712M8.62081 17.712L8.26726 17.3585C8.46758 17.1581 8.73927 17.0456 9.02257 17.0456H14.7043C14.9876 17.0456 15.2593 17.1581 15.4596 17.3585L15.106 17.712M15.106 17.712C15.2126 17.8186 15.2725 17.9631 15.2725 18.1138V25H15.7725M15.106 17.712L15.4596 17.3585C15.6599 17.5588 15.7725 17.8305 15.7725 18.1138V25M15.7725 25V25.5H22.0905C22.3919 25.5 22.6809 25.3803 22.894 25.1672C23.1071 24.9541 23.2269 24.665 23.2269 24.3637V10.1594C23.2269 10.0766 23.2089 9.99483 23.1741 9.91975C23.1392 9.84467 23.0884 9.77811 23.0252 9.72473M15.7725 25H22.0905C22.2593 25 22.4211 24.933 22.5405 24.8136C22.6598 24.6943 22.7269 24.5324 22.7269 24.3637V10.1594V10.159C22.7269 10.149 22.7247 10.1392 22.7205 10.1302C22.7164 10.1212 22.7103 10.1133 22.7027 10.1069L22.7031 10.1072L23.0252 9.72473M23.0252 9.72473L12.2299 0.633985C12.1274 0.547462 11.9976 0.5 11.8634 0.5C11.7293 0.5 11.5995 0.547462 11.497 0.633985L0.701701 9.72473M23.0252 9.72473L22.7027 10.1068L11.9078 1.01644L11.9074 1.01608C11.8951 1.0057 11.8795 1 11.8634 1C11.8473 1 11.8318 1.0057 11.8195 1.01608L11.819 1.01644L1.0242 10.1068L0.701701 9.72473" stroke="black"/>
</g>
</svg>
