<svg width="25" height="25" viewBox="0 0 25 25" fill="none" xmlns="http://www.w3.org/2000/svg">
<g clip-path="url(#clip0_5_3)">
<path d="M8.45442 24.5V25H2.13636C1.83498 25 1.54595 24.8803 1.33285 24.6672C1.11974 24.4541 1.00002 24.165 1.00002 23.8637V9.65939C0.999952 9.57662 1.01797 9.49484 1.05281 9.41976C1.08765 9.34468 1.13847 9.27813 1.20172 9.22474L11.997 0.134C12.0995 0.0474775 12.2293 1.52588e-05 12.3634 1.52588e-05C12.4976 1.52588e-05 12.6274 0.0474775 12.7299 0.134L23.5252 9.22474C23.5884 9.27813 23.6392 9.34468 23.6741 9.41976C23.7089 9.49484 23.7269 9.57662 23.7269 9.65939V23.8637C23.7269 24.165 23.6071 24.4541 23.394 24.6672C23.1809 24.8803 22.8919 25 22.5905 25H16.2725V24.5M8.45442 24.5H8.95442V17.6138C8.95442 17.4631 9.01428 17.3186 9.12083 17.212C9.22738 17.1055 9.3719 17.0456 9.52259 17.0456H15.2043C15.355 17.0456 15.4995 17.1055 15.6061 17.212C15.7126 17.3186 15.7725 17.4631 15.7725 17.6138V24.5H16.2725M8.45442 24.5V17.6138C8.45442 17.3305 8.56695 17.0588 8.76728 16.8585C8.9676 16.6582 9.23929 16.5456 9.52259 16.5456H15.2043C15.4876 16.5456 15.7593 16.6582 15.9596 16.8585C16.1599 17.0588 16.2725 17.3305 16.2725 17.6138V24.5M8.45442 24.5H2.13636C1.96759 24.5 1.80574 24.433 1.6864 24.3136C1.56706 24.1943 1.50002 24.0324 1.50002 23.8637L1.50002 9.65939L1.50002 9.65898C1.50001 9.64905 1.50217 9.63924 1.50635 9.63023C1.51051 9.62128 1.51655 9.61334 1.52408 9.60695L1.52379 9.6072L1.20173 9.22475L1.52422 9.60683L12.319 0.516456L12.3195 0.516091C12.3318 0.50571 12.3473 0.500015 12.3634 0.500015C12.3795 0.500015 12.3951 0.50571 12.4074 0.516091L12.4078 0.516455L23.2027 9.60683L23.5248 9.22523L23.2031 9.6072L23.2029 9.60702C23.2104 9.6134 23.2164 9.62131 23.2205 9.63023C23.2247 9.63924 23.2269 9.64905 23.2269 9.65898V9.65939V23.8637C23.2269 24.0324 23.1598 24.1943 23.0405 24.3136C22.9212 24.433 22.7593 24.5 22.5905 24.5H16.2725" fill="black" stroke="black"/>
</g>
<defs>
<clipPath id="clip0_5_3">
<rect width="25" height="25" fill="white"/>
</clipPath>
</defs>
</svg>
