<svg width="26" height="24" viewBox="0 0 26 24" fill="none" xmlns="http://www.w3.org/2000/svg">
<g id="Group">
<path id="Vector" d="M17.2969 3.40625H16.5156V1.45312H9.48438V3.40625H8.70312V1.0625C8.70312 0.846875 8.87813 0.671875 9.09375 0.671875H16.9062C17.1219 0.671875 17.2969 0.846875 17.2969 1.0625V3.40625Z" fill="black"/>
<path id="Vector_2" d="M15.7344 17.4688V18.6406C15.7344 18.8563 15.5594 19.0312 15.3438 19.0312H10.6562C10.4406 19.0312 10.2656 18.8563 10.2656 18.6406V17.4688H2.45312V21.7656C2.45312 22.6285 3.15273 23.3281 4.01562 23.3281H21.9844C22.8473 23.3281 23.5469 22.6285 23.5469 21.7656V17.4688H15.7344Z" fill="black"/>
<path id="Vector_3" d="M23.5469 4.1875H2.45312C1.59023 4.1875 0.890625 4.88711 0.890625 5.75V16.2969C0.890625 16.5125 1.06563 16.6875 1.28125 16.6875H10.2656V15.5156C10.2656 15.3 10.4406 15.125 10.6562 15.125H15.3438C15.5594 15.125 15.7344 15.3 15.7344 15.5156V16.6875H24.7188C24.9344 16.6875 25.1094 16.5125 25.1094 16.2969V5.75C25.1094 4.88711 24.4098 4.1875 23.5469 4.1875Z" fill="black"/>
</g>
</svg>
