<svg width="19" height="19" viewBox="0 0 19 19" fill="none" xmlns="http://www.w3.org/2000/svg">
<g id="badge-check-2 1">
<g id="Group">
<path id="Vector" d="M16.2851 8.52433L15.0371 7.27633V5.51133C15.0371 4.54633 14.2521 3.76133 13.2871 3.76133H11.5221L10.2731 2.51233C9.59212 1.83233 8.48212 1.83133 7.79912 2.51233L6.55112 3.76033H4.78612C3.82112 3.76033 3.03612 4.54533 3.03612 5.51033V7.27533L1.78712 8.52433C1.10612 9.20633 1.10612 10.3163 1.78712 10.9983L3.03512 12.2463V14.0113C3.03512 14.9763 3.82012 15.7613 4.78512 15.7613H6.55012L7.79912 17.0103C8.14012 17.3503 8.58812 17.5213 9.03612 17.5213C9.48412 17.5213 9.93212 17.3513 10.2731 17.0103L11.5211 15.7623H13.2861C14.2511 15.7623 15.0361 14.9773 15.0361 14.0123V12.2473L16.2851 10.9983C16.9661 10.3163 16.9661 9.20633 16.2851 8.52433ZM12.5011 7.72433L8.57812 12.7243C8.44212 12.8983 8.23512 13.0033 8.01412 13.0113C8.00512 13.0113 7.99712 13.0113 7.98812 13.0113C7.77612 13.0113 7.57412 12.9223 7.43112 12.7643L5.60412 10.7413C5.32712 10.4333 5.35112 9.95933 5.65812 9.68133C5.96512 9.40433 6.44012 9.42833 6.71812 9.73533L7.94812 11.0973L11.3221 6.79833C11.5781 6.47233 12.0491 6.41533 12.3751 6.67133C12.7011 6.92633 12.7571 7.39833 12.5011 7.72433Z" fill="#2D6AFF"/>
</g>
</g>
</svg>
