<svg width="28" height="28" viewBox="0 0 28 28" fill="none" xmlns="http://www.w3.org/2000/svg">
<rect width="28" height="28" rx="14" fill="black"/>
<path d="M17.0004 11.998C17.4129 11.9982 17.8154 11.8706 18.1526 11.633C18.4898 11.3953 18.7452 11.0591 18.8838 10.6705C19.0224 10.282 19.0374 9.86002 18.9267 9.4626C18.816 9.06518 18.585 8.71174 18.2655 8.45078C17.946 8.18981 17.5535 8.03409 17.142 8.00498C16.7305 7.97588 16.32 8.07481 15.9669 8.2882C15.6139 8.5016 15.3355 8.81901 15.1699 9.19689C15.0044 9.57477 14.9598 9.99461 15.0423 10.3988L12.1287 12.3459C11.8285 12.1402 11.4777 12.0204 11.1144 11.9994C10.751 11.9784 10.3889 12.057 10.0669 12.2267C9.74492 12.3964 9.47539 12.6508 9.28738 12.9624C9.09936 13.2741 9 13.6311 9 13.9951C9 14.359 9.09936 14.7161 9.28738 15.0277C9.47539 15.3394 9.74492 15.5938 10.0669 15.7635C10.3889 15.9332 10.751 16.0118 11.1144 15.9908C11.4777 15.9698 11.8285 15.85 12.1287 15.6443L15.0423 17.5953C14.948 18.0496 15.0147 18.5225 15.2309 18.9329C15.447 19.3434 15.7992 19.666 16.2271 19.8452C16.655 20.0245 17.1319 20.0494 17.5761 19.9156C18.0203 19.7818 18.4042 19.4977 18.6619 19.1119C18.9196 18.7262 19.0351 18.2628 18.9886 17.8012C18.9421 17.3396 18.7365 16.9085 18.407 16.5819C18.0776 16.2553 17.6448 16.0534 17.1828 16.0109C16.7208 15.9684 16.2584 16.0879 15.8749 16.3489L12.9613 14.4019C13.016 14.1348 13.016 13.8594 12.9613 13.5923L15.8749 11.6502C16.2063 11.8771 16.5987 11.9984 17.0004 11.998Z" fill="white"/>
</svg>
