<svg width="49" height="48" viewBox="0 0 49 48" fill="none" xmlns="http://www.w3.org/2000/svg">
<g id="file-starred 1">
<g id="Group">
<path id="Vector" d="M41.5 47H7.5C6.395 47 5.5 46.105 5.5 45V3C5.5 1.895 6.395 1 7.5 1H31.5L43.5 13V45C43.5 46.105 42.605 47 41.5 47Z" fill="#F9D44C"/>
<path id="Vector_2" d="M31.5 1V11C31.5 12.105 32.395 13 33.5 13H43.5L31.5 1Z" fill="#C7AA3D"/>
<path id="Vector_3" d="M33.4242 21.217C33.2702 20.843 32.9042 20.6 32.5002 20.6H27.5602L25.4192 15.607C25.2622 15.238 24.9002 15 24.5002 15C24.1002 15 23.7382 15.238 23.5812 15.606L21.4402 20.6H16.5002C16.0962 20.6 15.7302 20.843 15.5762 21.217C15.4212 21.591 15.5072 22.021 15.7932 22.307L19.3932 25.907L17.9302 31.759C17.8322 32.148 17.9772 32.556 18.2962 32.798C18.6142 33.04 19.0482 33.068 19.3962 32.869L24.5002 29.951L29.6042 32.868C29.7592 32.956 29.9302 33 30.1012 33C30.3152 33 30.5282 32.932 30.7052 32.797C31.0242 32.555 31.1692 32.147 31.0712 31.758L29.6082 25.906L33.2082 22.306C33.4932 22.021 33.5792 21.591 33.4242 21.217Z" fill="white"/>
</g>
</g>
</svg>
