<svg width="32" height="30" viewBox="0 0 32 30" fill="none" xmlns="http://www.w3.org/2000/svg">
<g id="Group">
<path id="Vector" d="M21.5 4H20.5V1.5H11.5V4H10.5V1C10.5 0.724 10.724 0.5 11 0.5H21C21.276 0.5 21.5 0.724 21.5 1V4Z" fill="black"/>
<path id="Vector_2" d="M19.5 22V23.5C19.5 23.776 19.276 24 19 24H13C12.724 24 12.5 23.776 12.5 23.5V22H2.5V27.5C2.5 28.6045 3.3955 29.5 4.5 29.5H27.5C28.6045 29.5 29.5 28.6045 29.5 27.5V22H19.5Z" fill="black"/>
<path id="Vector_3" d="M29.5 5H2.5C1.3955 5 0.5 5.8955 0.5 7V20.5C0.5 20.776 0.724 21 1 21H12.5V19.5C12.5 19.224 12.724 19 13 19H19C19.276 19 19.5 19.224 19.5 19.5V21H31C31.276 21 31.5 20.776 31.5 20.5V7C31.5 5.8955 30.6045 5 29.5 5Z" fill="black"/>
</g>
</svg>
